<?xml version="1.0" standalone="no"?>
<!DOCTYPE svg PUBLIC "-//W3C//DTD SVG 20010904//EN"
 "http://www.w3.org/TR/2001/REC-SVG-20010904/DTD/svg10.dtd">
<svg version="1.0" xmlns="http://www.w3.org/2000/svg"
 width="640.000000pt" height="640.000000pt" viewBox="0 0 640.000000 640.000000"
 preserveAspectRatio="xMidYMid meet">
<metadata>
Created by potrace 1.14, written by Peter Selinger 2001-2017
</metadata>
<g transform="translate(0.000000,640.000000) scale(0.100000,-0.100000)"
fill="#000000" stroke="none">
<path d="M0 3200 l0 -3200 3200 0 3200 0 0 3200 0 3200 -3200 0 -3200 0 0
-3200z m2901 1840 c51 -17 126 -48 167 -70 l75 -39 84 35 c62 26 95 34 128 32
29 -2 44 -7 41 -14 -3 -7 9 -14 25 -18 33 -6 191 -95 319 -180 46 -30 87 -52
91 -48 3 4 14 28 24 55 12 32 23 47 36 47 10 0 21 5 25 11 4 7 9 8 13 1 3 -6
26 -21 49 -35 l43 -24 67 33 c37 18 100 42 140 52 41 11 79 25 84 30 7 7 22
-1 47 -23 20 -18 68 -62 107 -97 225 -199 351 -440 398 -762 11 -77 12 -79 31
-60 65 65 135 103 135 73 0 -6 13 -22 30 -35 69 -59 132 -209 167 -398 24
-128 24 -453 0 -549 -9 -38 -17 -72 -17 -76 0 -5 42 0 93 11 132 27 289 38
552 38 206 0 233 -2 258 -18 l27 -19 -53 -104 c-103 -202 -297 -463 -459 -614
-320 -300 -640 -443 -1063 -475 -75 -6 -145 -15 -155 -20 -27 -14 -72 -12
-107 5 -16 8 -64 21 -106 29 -43 8 -82 18 -88 21 -5 4 -49 -13 -97 -38 -100
-51 -134 -63 -217 -76 -33 -5 -130 -21 -215 -35 -85 -14 -159 -26 -164 -26 -5
0 1 -8 12 -19 12 -10 22 -25 22 -33 0 -9 8 -22 17 -29 14 -12 16 -12 11 1 -23
58 -23 56 -5 41 9 -7 17 -18 17 -23 0 -19 42 -68 52 -61 7 4 9 0 5 -10 -4 -11
-2 -14 9 -10 16 6 18 15 6 28 -5 6 -14 24 -21 40 -10 25 -3 20 43 -28 63 -65
70 -67 26 -5 -16 22 -30 48 -30 57 0 11 5 8 16 -9 9 -14 30 -36 46 -49 l30
-24 -4 34 c-2 29 0 34 17 31 11 -2 27 -12 35 -22 8 -10 26 -20 40 -22 15 -2
24 -9 22 -17 -2 -8 3 -11 13 -8 8 4 15 2 15 -3 0 -6 7 -10 16 -10 8 0 12 -4 9
-10 -3 -5 0 -7 9 -4 8 3 28 -5 45 -17 36 -27 49 -21 21 9 -21 22 -26 57 -11
67 5 3 37 -12 71 -32 34 -21 74 -45 88 -53 107 -60 185 -120 156 -120 -12 0
-100 55 -111 70 -9 12 -14 12 -24 3 -10 -10 -7 -14 12 -22 13 -5 35 -21 49
-36 24 -26 38 -34 89 -50 20 -6 23 -4 18 9 -9 22 6 20 34 -4 l24 -19 -24 -1
-24 0 28 -27 c15 -16 30 -28 34 -28 11 -1 51 -30 51 -37 0 -14 -21 -8 -51 13
-22 15 -27 17 -23 5 3 -9 12 -16 19 -16 7 0 18 -7 25 -15 10 -12 16 -13 27 -4
11 9 18 8 36 -8 12 -11 33 -29 46 -41 14 -12 30 -22 35 -22 6 0 22 -12 35 -25
13 -14 29 -25 37 -25 12 0 17 -9 16 -30 0 -3 6 -11 14 -18 8 -7 14 -10 14 -7
0 17 51 -44 64 -76 9 -22 23 -39 31 -39 8 0 15 -7 15 -15 0 -8 -9 -15 -20 -15
-10 0 -24 -10 -31 -21 -6 -12 -7 -19 -2 -16 5 3 15 2 22 -3 17 -10 4 -33 -15
-26 -8 3 -14 -1 -14 -9 0 -9 6 -12 15 -9 11 4 15 0 15 -16 0 -19 -2 -20 -15
-10 -9 7 -19 10 -22 6 -4 -4 -2 -11 6 -15 10 -6 9 -10 -4 -14 -9 -4 -13 -3
-10 2 3 5 1 12 -4 15 -5 4 -11 -4 -13 -16 -4 -29 -25 -31 -148 -12 -165 26
-324 82 -453 159 -41 25 -79 45 -86 45 -6 0 -11 5 -11 12 0 6 -3 8 -7 5 -3 -4
-13 -2 -20 5 -11 9 -16 9 -22 0 -9 -15 -96 12 -127 39 -11 11 -28 19 -37 19
-9 0 -17 4 -17 10 0 5 -7 6 -17 3 -10 -4 -14 -2 -10 4 4 6 -2 13 -13 16 -13 3
-20 0 -20 -9 0 -8 -5 -14 -11 -14 -5 0 -8 4 -5 9 17 26 -41 71 -90 71 -53 0
-240 241 -301 388 -8 20 -26 52 -40 70 -13 17 -21 37 -17 44 4 6 3 8 -4 4 -6
-3 -13 -2 -17 4 -3 5 -1 10 4 10 6 0 11 4 11 8 0 12 -46 32 -71 32 -11 0 -18
4 -15 8 2 4 -10 6 -28 4 -22 -3 -54 6 -92 23 -32 15 -86 38 -119 51 l-59 24
-91 -88 c-152 -149 -377 -319 -529 -400 -172 -92 -436 -148 -646 -138 -159 7
-272 37 -447 118 -116 53 -299 166 -328 202 -5 7 -29 25 -53 40 -51 32 -58 47
-42 86 14 34 124 141 194 190 79 53 305 146 470 192 76 21 289 52 431 63 50 4
96 11 104 15 8 4 -36 23 -118 50 -214 69 -360 150 -515 287 -170 149 -314 353
-367 518 -12 39 -39 102 -60 140 -40 74 -95 210 -126 310 -14 48 -18 92 -18
215 1 134 4 169 27 260 15 58 40 137 56 175 60 140 62 142 122 125 19 -6 87
-10 151 -10 108 0 236 -16 346 -43 l48 -12 50 101 c86 171 254 403 372 514 47
44 65 56 96 58 60 4 132 -25 176 -71 l40 -40 58 50 c170 147 243 196 438 298
72 37 139 74 150 82 26 18 30 17 136 -17z m-2344 -1832 c-7 -10 -15 -18 -19
-18 -12 0 -9 35 4 48 17 17 29 -6 15 -30z m3417 -1637 c-6 -7 -34 8 -34 19 0
6 5 8 10 5 6 -3 10 0 11 7 0 7 4 4 8 -7 5 -11 7 -22 5 -24z m98 27 c22 -21 56
-38 75 -38 13 0 14 -3 5 -12 -9 -9 -15 -9 -24 0 -7 7 -19 12 -27 12 -16 0 -51
28 -51 42 0 11 6 10 22 -4z m281 -82 c54 -76 63 -91 50 -83 -5 3 -31 38 -57
77 -26 38 -51 70 -57 70 -5 0 -9 5 -9 11 0 19 26 -8 73 -75z m-313 32 c0 -11
7 -18 18 -18 14 0 15 2 2 10 -8 5 -11 12 -8 16 4 3 24 -7 45 -23 21 -16 62
-44 91 -62 50 -32 67 -55 24 -32 -28 15 -32 14 -32 -5 0 -14 -3 -14 -15 -4 -8
7 -15 21 -15 31 0 21 -16 26 -23 7 -3 -9 -8 -6 -13 7 -5 11 -15 21 -22 23 -8
1 -11 -2 -7 -8 7 -12 3 -12 -19 -4 -9 3 -16 13 -16 21 0 8 -5 11 -11 8 -6 -4
-19 2 -30 14 -11 12 -24 21 -29 21 -6 0 -5 8 2 19 9 16 16 17 35 8 13 -5 23
-18 23 -29z m200 17 c11 -13 10 -14 -4 -9 -9 3 -16 1 -16 -4 0 -12 38 -27 58
-24 14 3 15 0 6 -22 -9 -23 -29 -20 -50 9 -14 19 -25 24 -44 21 -14 -3 -19 -3
-12 0 10 5 10 9 0 22 -11 13 -10 15 10 10 12 -4 22 -2 22 3 0 14 16 11 30 -6z
m-70 -50 c7 -8 8 -15 2 -15 -5 0 -15 7 -22 15 -7 8 -8 15 -2 15 5 0 15 -7 22
-15z m91 -45 c10 0 19 6 22 13 3 8 14 2 33 -17 l29 -29 -28 17 c-23 14 -31 15
-43 5 -12 -9 -20 -9 -39 1 -13 7 -22 17 -19 22 4 6 11 5 17 -1 6 -6 19 -11 28
-11z m29 -40 c0 -5 -2 -10 -4 -10 -3 0 -8 5 -11 10 -3 6 -1 10 4 10 6 0 11 -4
11 -10z m-70 -15 c0 -8 -4 -15 -9 -15 -13 0 -22 16 -14 24 11 11 23 6 23 -9z
m45 5 c3 -5 1 -10 -4 -10 -6 0 -11 5 -11 10 0 6 2 10 4 10 3 0 8 -4 11 -10z
m60 0 c3 -5 1 -10 -4 -10 -6 0 -11 5 -11 10 0 6 2 10 4 10 3 0 8 -4 11 -10z
m160 -105 c16 -22 40 -56 53 -75 21 -31 20 -31 -10 5 -18 22 -45 52 -59 66
-14 15 -26 35 -26 43 0 18 1 18 42 -39z m-78 -87 c18 -13 33 -27 33 -32 0 -5
-6 -4 -12 2 -7 6 -16 11 -20 11 -10 1 -50 41 -41 41 4 0 22 -10 40 -22z m178
-48 c10 -11 16 -20 13 -20 -3 0 -13 9 -23 20 -10 11 -16 20 -13 20 3 0 13 -9
23 -20z m73 -107 c55 -91 80 -159 88 -235 4 -48 2 -68 -10 -83 -14 -19 -15
-17 -10 29 3 38 0 52 -14 63 -9 8 -11 11 -4 8 10 -6 12 1 9 26 -7 47 -18 79
-28 79 -5 0 -6 6 -3 14 5 13 -6 35 -64 135 -14 25 -21 42 -15 38 6 -4 29 -37
51 -74z m-853 -143 c3 -6 -1 -7 -9 -4 -18 7 -21 14 -7 14 6 0 13 -4 16 -10z
m51 -15 c30 -16 25 -19 -13 -9 -13 4 -23 10 -23 15 0 12 3 11 36 -6z"/>
<path d="M2743 4923 c0 -6 13 -15 29 -19 41 -9 43 -1 4 17 -25 12 -33 12 -33
2z"/>
<path d="M4305 4880 c-3 -5 1 -10 10 -10 9 0 13 5 10 10 -3 6 -8 10 -10 10 -2
0 -7 -4 -10 -10z"/>
<path d="M2914 4772 c-6 -4 -16 -17 -23 -29 -11 -21 -9 -23 13 -23 14 0 28 5
31 10 4 6 10 8 15 5 9 -6 21 31 12 39 -8 8 -35 7 -48 -2z"/>
<path d="M3178 4734 c-3 -3 -4 -14 -1 -25 5 -20 22 -23 60 -13 21 6 20 8 -14
25 -43 22 -38 21 -45 13z"/>
<path d="M2930 4651 c0 -10 7 -21 14 -24 10 -4 13 -1 9 9 -3 7 0 14 6 14 6 0
11 5 11 10 0 6 -9 10 -20 10 -13 0 -20 -7 -20 -19z"/>
<path d="M2320 4190 c0 -5 5 -10 10 -10 6 0 10 5 10 10 0 6 -4 10 -10 10 -5 0
-10 -4 -10 -10z"/>
<path d="M786 4104 c-5 -14 -4 -15 9 -4 17 14 19 20 6 20 -5 0 -12 -7 -15 -16z"/>
<path d="M4990 4020 c-10 -6 -11 -10 -2 -10 6 0 12 -6 12 -14 0 -8 7 -16 15
-20 12 -4 13 -2 7 12 -5 9 -7 23 -5 30 6 14 -6 15 -27 2z"/>
<path d="M5026 3945 c-10 -28 -7 -45 9 -45 12 0 14 7 9 28 -9 35 -10 36 -18
17z"/>
<path d="M3734 3185 c-3 -8 -3 -19 1 -25 3 -5 1 -10 -6 -10 -8 0 -6 -6 4 -18
10 -10 17 -24 17 -30 0 -15 13 -15 28 0 10 10 17 10 32 0 26 -16 30 -15 30 3
0 8 4 15 10 15 5 0 7 7 4 15 -4 8 -15 15 -25 15 -10 0 -19 4 -19 9 0 32 -65
55 -76 26z"/>
<path d="M3680 3110 c0 -5 7 -10 16 -10 8 0 12 5 9 10 -3 6 -10 10 -16 10 -5
0 -9 -4 -9 -10z"/>
<path d="M3924 3067 c-17 -10 -13 -12 26 -18 25 -3 54 -3 65 2 17 7 17 8 3 8
-25 1 -30 2 -54 11 -11 5 -28 3 -40 -3z"/>
<path d="M6101 2984 c0 -11 3 -14 6 -6 3 7 2 16 -1 19 -3 4 -6 -2 -5 -13z"/>
<path d="M3950 1452 c0 -12 50 -46 56 -39 3 3 -9 15 -25 27 -17 12 -31 17 -31
12z"/>
<path d="M4020 1396 c0 -2 7 -7 16 -10 8 -3 12 -2 9 4 -6 10 -25 14 -25 6z"/>
<path d="M4085 1356 c17 -14 35 -26 40 -26 11 1 -20 27 -50 41 -11 6 -6 -1 10
-15z"/>
<path d="M4157 1309 c7 -7 15 -10 18 -7 3 3 -2 9 -12 12 -14 6 -15 5 -6 -5z"/>
<path d="M3430 1300 c0 -5 10 -15 23 -21 22 -12 22 -12 3 10 -21 23 -26 26
-26 11z"/>
<path d="M4210 1275 c7 -9 15 -13 17 -11 7 7 -7 26 -19 26 -6 0 -6 -6 2 -15z"/>
<path d="M3480 1262 c0 -5 19 -19 43 -31 l42 -23 -35 31 c-36 31 -50 38 -50
23z"/>
<path d="M3530 1196 c0 -2 7 -7 16 -10 8 -3 12 -2 9 4 -6 10 -25 14 -25 6z"/>
<path d="M4240 1186 c0 -2 8 -10 18 -17 15 -13 16 -12 3 4 -13 16 -21 21 -21
13z"/>
<path d="M4290 1145 c0 -8 61 -37 67 -31 3 2 -9 12 -26 20 -31 17 -41 19 -41
11z"/>
<path d="M4510 1011 c0 -8 41 -23 47 -17 2 1 -8 8 -22 14 -14 6 -25 8 -25 3z"/>
<path d="M4215 1000 c3 -5 11 -10 16 -10 6 0 7 5 4 10 -3 6 -11 10 -16 10 -6
0 -7 -4 -4 -10z"/>
<path d="M4147 939 c7 -7 15 -10 18 -7 3 3 -2 9 -12 12 -14 6 -15 5 -6 -5z"/>
<path d="M4010 936 c0 -2 8 -10 18 -17 15 -13 16 -12 3 4 -13 16 -21 21 -21
13z"/>
<path d="M4610 937 c0 -12 51 -60 57 -54 4 4 -6 19 -21 32 -28 24 -36 29 -36
22z"/>
<path d="M4207 909 c7 -7 15 -10 18 -7 3 3 -2 9 -12 12 -14 6 -15 5 -6 -5z"/>
<path d="M4248 813 c7 -3 16 -2 19 1 4 3 -2 6 -13 5 -11 0 -14 -3 -6 -6z"/>
</g>
</svg>
